<?xml version="1.0" encoding="utf-8"?>
<!-- Generator: Adobe Illustrator 15.0.0, SVG Export Plug-In . SVG Version: 6.00 Build 0)  -->
<!DOCTYPE svg PUBLIC "-//W3C//DTD SVG 1.1//EN" "http://www.w3.org/Graphics/SVG/1.1/DTD/svg11.dtd">
<svg version="1.1" id="Layer_1" xmlns="http://www.w3.org/2000/svg" xmlns:xlink="http://www.w3.org/1999/xlink" x="0px" y="0px"
	 width="90px" height="103px" viewBox="0 0 90 103" enable-background="new 0 0 90 103" xml:space="preserve">
<g>
	<path fill="#D2CFCD" d="M83.564,12.939h-6.403V6.5c0-3.552-2.889-6.436-6.436-6.436H6.431c-3.551,0-6.427,2.884-6.427,6.436v77.121
		c0,3.556,2.876,6.443,6.427,6.443h6.447V96.5c0,3.539,2.853,6.436,6.396,6.436h64.29c3.548,0,6.436-2.896,6.436-6.436V19.335
		C90,15.792,87.112,12.939,83.564,12.939 M6.431,6.5h64.294v77.13H6.431V6.5z M83.564,96.5h-64.29v-6.436h51.451
		c3.547,0,6.436-2.888,6.436-6.443V19.335h6.403V96.5z"/>
	<path fill="#D2CFCD" d="M61.088,19.335H28.943c-1.793,0-3.229,1.448-3.229,3.237c0,1.762,1.436,3.202,3.229,3.202h32.145
		c1.758,0,3.202-1.44,3.202-3.202C64.29,20.783,62.846,19.335,61.088,19.335"/>
	<path fill="#D2CFCD" d="M61.088,38.645H16.069c-1.793,0-3.198,1.44-3.198,3.198c0,1.793,1.405,3.237,3.198,3.237h45.019
		c1.758,0,3.202-1.444,3.202-3.237C64.29,40.085,62.846,38.645,61.088,38.645"/>
	<path fill="#D2CFCD" d="M61.088,51.484H16.069c-1.793,0-3.198,1.448-3.198,3.229c0,1.762,1.405,3.206,3.198,3.206h45.019
		c1.758,0,3.202-1.444,3.202-3.206C64.29,52.933,62.846,51.484,61.088,51.484"/>
	<path fill="#D2CFCD" d="M61.088,64.354H16.069c-1.793,0-3.198,1.444-3.198,3.194c0,1.797,1.405,3.241,3.198,3.241h45.019
		c1.758,0,3.202-1.444,3.202-3.241C64.29,65.799,62.846,64.354,61.088,64.354"/>
</g>
</svg>
