<?xml version="1.0" encoding="utf-8"?>
<!-- Generator: Adobe Illustrator 15.0.0, SVG Export Plug-In . SVG Version: 6.00 Build 0)  -->
<!DOCTYPE svg PUBLIC "-//W3C//DTD SVG 1.1//EN" "http://www.w3.org/Graphics/SVG/1.1/DTD/svg11.dtd">
<svg version="1.1" id="Layer_1" xmlns="http://www.w3.org/2000/svg" xmlns:xlink="http://www.w3.org/1999/xlink" x="0px" y="0px"
	 width="102px" height="85px" viewBox="0 0 102 85" enable-background="new 0 0 102 85" xml:space="preserve">
<g>
	<path fill="#D2CFCD" d="M13.674,69.016h69.117V27.544H13.674V69.016z M77.264,54.979l-2.256,2.08
		c-0.285-0.051-0.551-0.16-0.854-0.16c-2.48,0-4.484,1.855-4.484,4.141c0,0.283,0.113,0.521,0.17,0.787l-2.256,2.084H28.878
		l-2.252-2.084c0.058-0.262,0.173-0.508,0.173-0.787c0-2.289-2.011-4.137-4.487-4.137c-0.303,0-0.567,0.109-0.854,0.156
		l-2.256-2.082V41.582l2.253-2.08c0.285,0.051,0.553,0.16,0.856,0.16c2.477,0,4.483-1.855,4.483-4.142
		c0-0.281-0.116-0.523-0.173-0.788l2.256-2.083h38.708l2.254,2.08c-0.062,0.267-0.172,0.509-0.172,0.791
		c0,2.286,2.006,4.138,4.486,4.138c0.303,0,0.568-0.109,0.854-0.156l2.256,2.084V54.979z M71.725,48.279
		c0,2.283-2.008,4.135-4.484,4.135c-2.48,0-4.486-1.852-4.486-4.135s2.006-4.137,4.486-4.137
		C69.717,44.143,71.725,45.996,71.725,48.279 M58.855,48.279c0,5.285-4.643,9.572-10.367,9.572c-5.724,0-10.367-4.287-10.367-9.572
		c0-5.283,4.644-9.568,10.367-9.568C54.213,38.711,58.855,42.996,58.855,48.279 M33.709,48.279c0,2.283-2.007,4.135-4.483,4.135
		c-2.48,0-4.487-1.852-4.487-4.135s2.007-4.137,4.487-4.137C31.702,44.143,33.709,45.996,33.709,48.279 M61.65,23.321
		c0.084,0.253,0.057,0.511,0.09,0.767h-8.588c0.344-1.396,1.354-2.644,2.893-3.186C58.385,20.085,60.891,21.167,61.65,23.321
		 M15.34,24.088h-5.124v9.647l-0.347,0.658l0.347,0.991v16.694l-10.211-29.1L65.227,0.092l8.418,23.996h-5.857l-3.125-8.914
		l-2.82-1.218c-0.254,0.141-0.467,0.329-0.756,0.43c-2.336,0.817-4.846-0.264-5.602-2.422c-0.094-0.264-0.064-0.535-0.098-0.802
		l-2.82-1.219L16.046,22.756L15.34,24.088z M36.555,21.983c3.917-1.37,8.013-0.412,10.652,2.105H32.939
		C33.963,23.198,35.178,22.467,36.555,21.983"/>
</g>
<path fill="#FFFFFF" d="M83.264,84.908c-10.328,0-18.73-8.404-18.73-18.734c0-10.328,8.402-18.73,18.73-18.73
	s18.73,8.402,18.73,18.73C101.994,76.504,93.592,84.908,83.264,84.908z M80.523,75.357c0.877,0.266,1.797,0.4,2.74,0.4
	c5.283,0,9.582-4.299,9.582-9.584c0-0.941-0.135-1.861-0.4-2.738L80.523,75.357z M83.264,56.596c-5.283,0-9.58,4.297-9.58,9.578
	c0,0.943,0.135,1.865,0.4,2.742l11.92-11.92C85.127,56.73,84.205,56.596,83.264,56.596z"/>
<path fill="#D2CFCD" d="M83.264,50.443c-8.648,0-15.73,7.086-15.73,15.73c0,8.65,7.082,15.734,15.73,15.734
	c8.65,0,15.73-7.084,15.73-15.734C98.994,57.529,91.914,50.443,83.264,50.443 M70.684,66.174c0-6.92,5.66-12.578,12.58-12.578
	c2.836,0,5.508,0.936,7.713,2.67L73.355,73.889C71.619,71.684,70.684,69.01,70.684,66.174 M83.264,78.758
	c-2.834,0-5.506-0.938-7.711-2.674l17.621-17.621c1.734,2.205,2.672,4.879,2.672,7.711C95.846,73.096,90.186,78.758,83.264,78.758"
	/>
</svg>
