<?xml version="1.0" encoding="utf-8"?>
<!-- Generator: Adobe Illustrator 15.0.0, SVG Export Plug-In . SVG Version: 6.00 Build 0)  -->
<!DOCTYPE svg PUBLIC "-//W3C//DTD SVG 1.1//EN" "http://www.w3.org/Graphics/SVG/1.1/DTD/svg11.dtd">
<svg version="1.1" id="Layer_1" xmlns="http://www.w3.org/2000/svg" xmlns:xlink="http://www.w3.org/1999/xlink" x="0px" y="0px"
	 width="87.84px" height="89px" viewBox="0 0 87.84 89" enable-background="new 0 0 87.84 89" xml:space="preserve">
<g>
	<path fill="#D2CFCD" d="M87.25,60.474l-0.793-2.32c-0.441-1.282-1.832-2.321-3.117-2.321h-2.703
		c-1.688-4.793-3.449-9.05-4.02-10.358c-1.062-2.414-4.453-2.922-6.32-3.453c0,0-3.117-0.957-13.516-0.957
		c-10.403,0-13.515,0.957-13.515,0.957c-2.184,0.742-5.223,1.215-6.43,3.559c-0.481,0.934-2.262,5.312-3.981,10.253H30.18
		c-1.282,0-2.677,1.039-3.118,2.321l-0.796,2.32c-0.442,1.284,0.241,2.781,1.527,2.781h2.675c-0.711,2.081-1.192,3.046-1.192,3.046
		c-0.198,0.341-0.338,1.91-0.338,2.332V86c0,1.286,1.035,2.321,2.315,2.321h6.45c1.28,0,2.32-1.035,2.32-2.321v-3.25h33.516V86
		c0,1.282,1.039,2.321,2.32,2.321h6.449c1.281,0,2.319-1.035,2.319-2.321V68.633c0-0.422-0.14-1.991-0.339-2.332
		c0,0-0.488-0.965-1.215-3.046h2.652C87.008,63.255,87.691,61.758,87.25,60.474 M43.09,74.403h-3.086
		c-2.753,0-5.507-0.407-5.507-2.324v-2.321c0-2.237,1.184-2.319,2.468-2.319c1.25,0,3.73,1.16,5.364,1.957
		c1.781,0.867,3.769,1.594,3.769,3.047C46.098,73.782,45.41,74.403,43.09,74.403 M36.648,58.313c1.628-6.461,3.402-8.888,3.79-9.902
		c0.312-0.743,0.617-3.028,16.339-3.028c15.727,0,16.094,2.613,16.137,2.642c0.484,1.387,2.41,4.332,3.949,10.289
		c0,0-6.645,2.16-20.086,2.16C43.34,60.474,36.648,58.313,36.648,58.313 M79.066,72.079c0,1.914-2.754,2.32-5.512,2.32h-3.082
		c-2.324,0-3.008-0.617-3.008-1.957c0-1.449,1.988-2.176,3.77-3.047c1.633-0.797,4.109-1.953,5.359-1.953
		c1.281,0,2.473,0.082,2.473,2.32V72.079z M30.228,52.103c1.378-3.781,2.746-7.16,3.293-8.227c1.726-3.347,5.174-4.371,7.457-5.05
		c0.378-0.11,0.746-0.223,1.092-0.34c0.711-0.223,4.286-1.156,14.712-1.156c0.086,0,0.156,0.003,0.234,0.003
		c-0.027-0.078-0.047-0.132-0.078-0.214h2.652c1.281,0,1.961-1.497,1.527-2.778l-0.797-2.316c-0.44-1.281-1.832-2.32-3.117-2.32
		H54.5c-1.688-4.797-3.445-9.055-4.02-10.364c-1.059-2.41-4.453-2.922-6.32-3.449c0,0-3.117-0.957-13.515-0.957
		c-10.399,0-13.513,0.957-13.513,0.957c-2.188,0.742-5.222,1.215-6.429,3.555c-0.48,0.937-2.262,5.312-3.976,10.258H4.046
		c-1.28,0-2.679,1.035-3.116,2.32L0.132,34.34c-0.438,1.281,0.243,2.781,1.528,2.781h2.676c-0.711,2.083-1.191,3.047-1.191,3.047
		c-0.201,0.34-0.34,1.911-0.34,2.332v17.368c0,1.285,1.034,2.32,2.316,2.32h6.448c1.283,0,2.322-1.039,2.322-2.32v-3.254h9.816
		c1.063-2.618,3.703-4.512,6.473-4.512H30.228z M16.958,48.271h-3.082c-2.754,0-5.513-0.402-5.513-2.324v-2.321
		c0-2.238,1.188-2.32,2.47-2.32c1.25,0,3.73,1.16,5.359,1.953c1.782,0.871,3.773,1.598,3.773,3.047
		C19.964,47.646,19.276,48.271,16.958,48.271 M10.521,32.18c1.625-6.461,3.398-8.887,3.789-9.902
		c0.312-0.742,0.616-3.024,16.339-3.024c15.727,0,16.098,2.61,16.137,2.637c0.484,1.387,2.406,4.332,3.949,10.289
		c0,0-6.645,2.16-20.086,2.16C17.211,34.34,10.521,32.18,10.521,32.18 M40.441,7.344c0.316-0.742,0.618-3.023,16.344-3.023
		c15.723,0,16.09,2.609,16.133,2.636c0.484,1.387,2.41,4.332,3.949,10.289c0,0-6.645,2.165-20.082,2.165
		c-0.797,0-1.484-0.032-2.238-0.047c0.629,1.527,1.559,3.847,2.583,6.605h0.081c2.891,0,5.684,2.039,6.645,4.844l0.797,2.32
		c0.504,1.473,0.418,3.047-0.18,4.418c4.578,0.289,6.496,0.774,6.918,0.906l0.691,0.18c2.359,0.598,6.309,1.598,7.953,5.34
		c0.242,0.551,0.734,1.729,1.355,3.28h0.918c1.281,0,2.319-1.034,2.319-2.319V27.567c0-0.422-0.144-1.992-0.339-2.332
		c0,0-0.488-0.965-1.215-3.047h2.648c1.28,0,1.965-1.496,1.527-2.781l-0.801-2.317c-0.438-1.281-1.832-2.32-3.113-2.32h-2.703
		c-1.688-4.797-3.449-9.055-4.023-10.363c-1.059-2.411-4.449-2.922-6.316-3.453c0,0-3.117-0.954-13.516-0.954
		C46.378,0,43.263,0.955,43.263,0.955c-2.184,0.746-5.223,1.218-6.43,3.558c-0.355,0.707-1.454,3.352-2.707,6.723
		c1.711,0.039,3.125,0.109,4.382,0.191C39.438,9.133,40.204,7.965,40.441,7.344 M79.066,28.692v2.32c0,1.914-2.754,2.32-5.512,2.32
		h-3.082c-2.324,0-3.008-0.613-3.008-1.953c0-1.449,1.992-2.179,3.77-3.047c1.633-0.8,4.109-1.957,5.359-1.957
		C77.875,26.372,79.066,26.455,79.066,28.692"/>
</g>
</svg>
