<?xml version="1.0" encoding="utf-8"?>
<!-- Generator: Adobe Illustrator 15.0.0, SVG Export Plug-In . SVG Version: 6.00 Build 0)  -->
<!DOCTYPE svg PUBLIC "-//W3C//DTD SVG 1.1//EN" "http://www.w3.org/Graphics/SVG/1.1/DTD/svg11.dtd">
<svg version="1.1" id="Layer_1" xmlns="http://www.w3.org/2000/svg" xmlns:xlink="http://www.w3.org/1999/xlink" x="0px" y="0px"
	 width="176.377px" height="39.303px" viewBox="0 0 176.377 39.303" enable-background="new 0 0 176.377 39.303"
	 xml:space="preserve">
<g>
	<defs>
		<rect id="SVGID_1_" y="0" width="176.377" height="39.303"/>
	</defs>
	<clipPath id="SVGID_2_">
		<use xlink:href="#SVGID_1_"  overflow="visible"/>
	</clipPath>
	<path clip-path="url(#SVGID_2_)" fill="#FFFFFF" d="M67.866,39.303H57.039c-1.228,0-2.368-0.441-3.21-1.244
		c-0.847-0.807-1.312-1.899-1.312-3.082l0.001-9.941h3.002v9.914c0,0.809,0.921,1.373,1.75,1.373c0,0,10.604,0.008,10.61,0.008
		c1.118-0.006,1.789-0.7,1.792-1.369c0.003-0.295-0.12-0.576-0.355-0.811c-0.341-0.343-0.896-0.559-1.449-0.559l-5.719,0.002
		c-2.299,0-4.859-1.781-4.859-4.338c0-1.168,0.584-2.314,1.598-3.148c0.92-0.753,2.109-1.185,3.265-1.185h21.199
		c1.252,0,2.093,0.308,2.998,1.095c0.862,0.752,1.463,2.072,1.463,3.211l-0.005,5.729c0,1.233-0.602,2.491-1.566,3.283
		c-0.835,0.686-2.009,1.062-3.307,1.062l-4.483-0.01c-0.137,0-0.184,0-0.201-0.003v0.003c-2.3,0-4.862-1.779-4.862-4.335
		c0-1.168,0.582-2.315,1.596-3.146c0.924-0.758,2.117-1.192,3.277-1.192l5.696,0.001l0.001,2.968l-5.695,0.001
		c-0.901,0.001-1.834,0.512-1.834,1.365c-0.002,0.67,0.682,1.367,1.836,1.372c0.046,0,4.64-0.002,4.647-0.002
		c0.491-0.001,0.95-0.147,1.29-0.413c0.329-0.258,0.512-0.596,0.512-0.954l0.002-5.691c0.007-0.35-0.129-0.616-0.466-0.923
		c-0.315-0.285-0.807-0.456-1.317-0.456H62.153c-0.999,0.016-1.809,0.62-1.809,1.347c0,0.68,0.676,1.387,1.809,1.391h5.743
		c1.145,0,2.288,0.421,3.221,1.188c1.016,0.83,1.599,1.977,1.599,3.146c0,1.175-0.57,2.287-1.602,3.132
		C70.186,38.85,68.972,39.303,67.866,39.303 M95.145,34.248c0,0.02-0.004,0.035-0.014,0.05c-0.009,0.014-0.026,0.024-0.047,0.032
		c-0.024,0.01-0.056,0.016-0.096,0.021c-0.037,0.005-0.085,0.009-0.143,0.009c-0.057,0-0.104-0.004-0.143-0.009
		c-0.041-0.006-0.071-0.012-0.096-0.021c-0.022-0.008-0.039-0.019-0.047-0.032c-0.011-0.015-0.014-0.03-0.014-0.05v-4.327
		c0-0.017,0.004-0.034,0.015-0.048s0.027-0.025,0.052-0.033c0.023-0.009,0.056-0.015,0.095-0.021
		c0.038-0.005,0.084-0.008,0.138-0.008c0.058,0,0.105,0.003,0.143,0.008c0.04,0.007,0.071,0.013,0.096,0.021
		c0.021,0.008,0.038,0.02,0.047,0.033c0.01,0.014,0.014,0.031,0.014,0.048V34.248z M99.75,34.092c0,0.047-0.008,0.086-0.022,0.119
		c-0.016,0.031-0.038,0.059-0.062,0.079c-0.024,0.021-0.053,0.036-0.084,0.046c-0.032,0.009-0.062,0.014-0.093,0.014h-0.199
		c-0.062,0-0.118-0.007-0.165-0.02c-0.045-0.012-0.09-0.035-0.132-0.069c-0.043-0.034-0.085-0.078-0.127-0.138
		c-0.042-0.058-0.086-0.133-0.134-0.223l-1.375-2.564c-0.073-0.131-0.145-0.271-0.218-0.416c-0.072-0.145-0.142-0.287-0.203-0.424
		h-0.007c0.004,0.168,0.007,0.339,0.011,0.512c0.002,0.176,0.002,0.348,0.002,0.521v2.72c0,0.017-0.003,0.033-0.013,0.047
		c-0.011,0.016-0.028,0.027-0.051,0.035c-0.023,0.01-0.053,0.016-0.092,0.021c-0.037,0.005-0.086,0.009-0.144,0.009
		c-0.061,0-0.11-0.004-0.147-0.009c-0.037-0.006-0.068-0.012-0.09-0.021c-0.022-0.008-0.037-0.02-0.048-0.035
		c-0.01-0.014-0.016-0.03-0.016-0.047v-4.159c0-0.093,0.028-0.158,0.081-0.197c0.052-0.04,0.109-0.061,0.172-0.061h0.294
		c0.071,0,0.129,0.007,0.175,0.019c0.048,0.011,0.09,0.029,0.126,0.057c0.037,0.027,0.074,0.064,0.108,0.111
		c0.036,0.049,0.07,0.107,0.109,0.18l1.057,1.979c0.065,0.12,0.129,0.239,0.189,0.354c0.06,0.115,0.119,0.229,0.174,0.34
		c0.056,0.111,0.111,0.222,0.166,0.329c0.057,0.109,0.11,0.216,0.166,0.325h0.002c-0.004-0.182-0.009-0.373-0.009-0.572
		c-0.002-0.199-0.002-0.39-0.002-0.574v-2.443c0-0.018,0.005-0.032,0.016-0.047c0.01-0.014,0.026-0.025,0.05-0.035
		c0.022-0.012,0.053-0.019,0.092-0.023c0.037-0.004,0.088-0.007,0.149-0.007c0.054,0,0.1,0.003,0.139,0.007
		c0.04,0.005,0.069,0.012,0.092,0.023c0.021,0.01,0.039,0.021,0.048,0.035c0.01,0.015,0.015,0.029,0.015,0.047V34.092z
		 M103.773,30.089c0,0.045-0.001,0.083-0.006,0.115c-0.006,0.032-0.013,0.06-0.023,0.079s-0.023,0.033-0.039,0.043
		c-0.014,0.01-0.031,0.014-0.05,0.014h-1.268v3.908c0,0.02-0.005,0.035-0.015,0.05c-0.01,0.014-0.025,0.024-0.048,0.032
		c-0.023,0.01-0.054,0.016-0.093,0.021c-0.039,0.005-0.087,0.009-0.144,0.009c-0.056,0-0.104-0.004-0.145-0.009
		c-0.038-0.006-0.07-0.012-0.093-0.021c-0.025-0.008-0.041-0.019-0.049-0.032c-0.01-0.015-0.016-0.03-0.016-0.05V30.34h-1.268
		c-0.02,0-0.034-0.004-0.05-0.014s-0.027-0.023-0.035-0.043c-0.011-0.02-0.019-0.047-0.024-0.079s-0.01-0.07-0.01-0.115
		c0-0.044,0.004-0.083,0.01-0.117c0.006-0.032,0.014-0.06,0.024-0.08c0.008-0.022,0.02-0.037,0.035-0.046
		c0.016-0.01,0.03-0.015,0.05-0.015h3.136c0.019,0,0.036,0.005,0.05,0.015c0.016,0.009,0.028,0.023,0.039,0.046
		c0.011,0.021,0.018,0.048,0.023,0.08C103.772,30.006,103.773,30.045,103.773,30.089 M106.935,34.092
		c0,0.042-0.004,0.078-0.008,0.11c-0.006,0.03-0.013,0.057-0.024,0.078c-0.012,0.021-0.025,0.036-0.04,0.046
		c-0.016,0.008-0.031,0.014-0.051,0.014h-2.162c-0.055,0-0.105-0.02-0.152-0.055c-0.048-0.036-0.072-0.1-0.072-0.19v-4.02
		c0-0.091,0.024-0.154,0.072-0.19c0.047-0.035,0.098-0.054,0.152-0.054h2.138c0.019,0,0.035,0.005,0.05,0.015
		c0.016,0.009,0.027,0.023,0.037,0.046c0.011,0.021,0.017,0.046,0.024,0.077c0.004,0.031,0.007,0.07,0.007,0.117
		c0,0.042-0.003,0.078-0.007,0.109c-0.008,0.032-0.014,0.057-0.024,0.077c-0.01,0.02-0.021,0.035-0.037,0.044
		c-0.015,0.008-0.031,0.014-0.05,0.014h-1.764v1.414h1.514c0.019,0,0.034,0.006,0.05,0.016c0.016,0.011,0.028,0.025,0.038,0.043
		c0.01,0.019,0.019,0.045,0.021,0.076c0.005,0.033,0.009,0.072,0.009,0.115c0,0.041-0.004,0.079-0.009,0.109
		c-0.003,0.029-0.012,0.055-0.021,0.072c-0.01,0.019-0.022,0.032-0.038,0.041c-0.016,0.006-0.031,0.012-0.05,0.012h-1.514v1.612
		h1.788c0.02,0,0.035,0.005,0.051,0.015c0.015,0.008,0.028,0.023,0.04,0.043c0.012,0.021,0.019,0.046,0.024,0.077
		C106.931,34.006,106.935,34.046,106.935,34.092 M110.915,34.248c0,0.02-0.004,0.035-0.009,0.05
		c-0.009,0.014-0.023,0.024-0.046,0.033c-0.023,0.011-0.056,0.019-0.098,0.022s-0.098,0.007-0.168,0.007
		c-0.06,0-0.11-0.003-0.147-0.007c-0.038-0.004-0.07-0.012-0.092-0.023c-0.024-0.01-0.042-0.024-0.056-0.043
		c-0.012-0.02-0.022-0.042-0.031-0.07l-0.416-1.062c-0.049-0.12-0.099-0.232-0.151-0.332c-0.053-0.102-0.114-0.189-0.186-0.262
		c-0.072-0.072-0.157-0.13-0.254-0.171c-0.098-0.039-0.216-0.06-0.353-0.06h-0.4v1.918c0,0.02-0.006,0.035-0.017,0.05
		c-0.011,0.014-0.026,0.024-0.048,0.032c-0.023,0.01-0.052,0.016-0.091,0.021c-0.039,0.005-0.086,0.009-0.145,0.009
		s-0.105-0.004-0.145-0.009c-0.04-0.006-0.069-0.012-0.093-0.021c-0.022-0.008-0.039-0.019-0.049-0.032
		c-0.01-0.015-0.014-0.03-0.014-0.05v-4.173c0-0.091,0.025-0.154,0.071-0.19c0.048-0.035,0.099-0.054,0.151-0.054h0.958
		c0.113,0,0.208,0.003,0.285,0.009c0.074,0.006,0.143,0.012,0.203,0.02c0.173,0.03,0.327,0.078,0.462,0.144
		c0.133,0.064,0.245,0.147,0.334,0.247c0.093,0.1,0.161,0.213,0.205,0.342c0.046,0.13,0.069,0.273,0.069,0.428
		c0,0.15-0.021,0.286-0.062,0.406c-0.042,0.119-0.1,0.225-0.176,0.317c-0.076,0.091-0.168,0.171-0.274,0.237
		c-0.107,0.067-0.227,0.125-0.36,0.171c0.074,0.032,0.143,0.074,0.202,0.123c0.062,0.052,0.118,0.11,0.169,0.181
		c0.054,0.068,0.103,0.148,0.149,0.24c0.047,0.09,0.091,0.191,0.14,0.307l0.403,0.992c0.033,0.084,0.054,0.143,0.063,0.176
		C110.91,34.205,110.915,34.23,110.915,34.248 M110.014,31.082c0-0.176-0.04-0.326-0.118-0.447
		c-0.079-0.121-0.214-0.211-0.398-0.264c-0.059-0.016-0.122-0.027-0.196-0.035c-0.073-0.006-0.169-0.01-0.287-0.01h-0.505v1.519
		h0.585c0.158,0,0.295-0.019,0.409-0.058c0.114-0.037,0.212-0.092,0.288-0.16c0.075-0.068,0.132-0.148,0.167-0.242
		C109.997,31.291,110.014,31.191,110.014,31.082 M113.508,34.234c-0.01,0.026-0.023,0.048-0.039,0.063
		c-0.016,0.017-0.039,0.028-0.068,0.038c-0.029,0.009-0.063,0.016-0.112,0.019c-0.044,0.003-0.101,0.006-0.168,0.006
		c-0.051,0-0.097-0.001-0.133-0.003c-0.04-0.001-0.072-0.003-0.1-0.008c-0.028-0.005-0.053-0.009-0.071-0.016
		c-0.021-0.006-0.037-0.014-0.053-0.022c-0.013-0.009-0.023-0.021-0.03-0.034c-0.011-0.013-0.017-0.027-0.024-0.047l-1.474-4.186
		c-0.018-0.052-0.029-0.094-0.029-0.125s0.009-0.055,0.029-0.07c0.021-0.017,0.055-0.027,0.101-0.031
		c0.049-0.006,0.109-0.008,0.189-0.008c0.063,0,0.117,0.002,0.155,0.005c0.036,0.003,0.067,0.011,0.088,0.019
		c0.021,0.01,0.037,0.022,0.047,0.037c0.011,0.015,0.021,0.034,0.029,0.058l1.293,3.794h0.005l1.257-3.787
		c0.006-0.025,0.016-0.046,0.024-0.062s0.024-0.029,0.048-0.039c0.024-0.008,0.057-0.016,0.098-0.019
		c0.043-0.003,0.099-0.005,0.168-0.005c0.072,0,0.129,0.003,0.171,0.008c0.042,0.007,0.069,0.018,0.086,0.033
		c0.014,0.018,0.02,0.041,0.016,0.073c-0.002,0.03-0.015,0.071-0.032,0.122L113.508,34.234z M116.332,34.248
		c0,0.02-0.004,0.035-0.013,0.05c-0.01,0.014-0.026,0.024-0.05,0.032c-0.023,0.01-0.054,0.016-0.093,0.021
		c-0.038,0.005-0.086,0.009-0.145,0.009c-0.056,0-0.103-0.004-0.143-0.009c-0.04-0.006-0.07-0.012-0.092-0.021
		c-0.025-0.008-0.04-0.019-0.051-0.032c-0.011-0.015-0.014-0.03-0.014-0.05v-4.327c0-0.017,0.004-0.034,0.017-0.048
		c0.01-0.014,0.027-0.025,0.051-0.033c0.025-0.009,0.057-0.015,0.095-0.021c0.037-0.005,0.084-0.008,0.137-0.008
		c0.059,0,0.106,0.003,0.145,0.008c0.039,0.007,0.069,0.013,0.093,0.021c0.023,0.008,0.04,0.02,0.05,0.033
		c0.009,0.014,0.013,0.031,0.013,0.048V34.248z M120.908,34.127c0.018,0.051,0.027,0.092,0.028,0.123
		c0.001,0.032-0.008,0.056-0.027,0.072c-0.017,0.018-0.049,0.027-0.092,0.031c-0.044,0.004-0.102,0.007-0.173,0.007
		s-0.129-0.003-0.171-0.006c-0.044-0.003-0.075-0.009-0.099-0.017s-0.039-0.02-0.047-0.033c-0.012-0.015-0.022-0.031-0.03-0.053
		l-0.388-1.098h-1.874l-0.368,1.084c-0.009,0.021-0.017,0.039-0.027,0.054c-0.014,0.016-0.03,0.028-0.053,0.038
		c-0.021,0.012-0.054,0.02-0.094,0.023c-0.039,0.004-0.093,0.007-0.159,0.007c-0.065,0-0.121-0.004-0.166-0.009
		c-0.041-0.006-0.071-0.018-0.09-0.033c-0.017-0.016-0.025-0.041-0.023-0.072c0-0.03,0.01-0.071,0.028-0.123l1.512-4.188
		c0.01-0.025,0.022-0.046,0.038-0.062c0.015-0.017,0.038-0.029,0.066-0.039c0.029-0.008,0.065-0.016,0.111-0.019
		s0.103-0.005,0.174-0.005c0.072,0,0.134,0.002,0.184,0.005c0.047,0.003,0.087,0.011,0.117,0.019c0.03,0.01,0.055,0.023,0.07,0.041
		s0.029,0.039,0.039,0.064L120.908,34.127z M118.965,30.433h-0.003l-0.776,2.245h1.567L118.965,30.433z M123.996,34.078
		c0,0.047-0.001,0.086-0.006,0.116c-0.006,0.032-0.012,0.059-0.023,0.08c-0.011,0.022-0.024,0.038-0.038,0.05
		c-0.016,0.01-0.032,0.016-0.055,0.016h-1.991c-0.054,0-0.104-0.02-0.152-0.055c-0.046-0.036-0.071-0.1-0.071-0.19v-4.174
		c0-0.017,0.004-0.034,0.014-0.048c0.009-0.014,0.025-0.025,0.048-0.033c0.024-0.009,0.056-0.015,0.095-0.021
		c0.04-0.005,0.087-0.008,0.144-0.008c0.059,0,0.107,0.003,0.144,0.008c0.04,0.007,0.069,0.013,0.093,0.021
		c0.023,0.008,0.041,0.02,0.049,0.033c0.01,0.014,0.014,0.031,0.014,0.048v3.899h1.616c0.022,0,0.039,0.005,0.055,0.016
		c0.014,0.011,0.027,0.025,0.038,0.045c0.012,0.02,0.018,0.045,0.023,0.078C123.995,33.992,123.996,34.031,123.996,34.078"/>
	<path clip-path="url(#SVGID_2_)" fill="#57C5E8" d="M52.517,21.279h3.003v3.006h-3.003V21.279z M88.564,33.589h3.004v-3.005h-3.004
		V33.589z"/>
	<path clip-path="url(#SVGID_2_)" fill="#FFFFFF" d="M11.68,15.61c0,0.089-0.017,0.165-0.049,0.225
		c-0.033,0.061-0.109,0.112-0.23,0.153c-0.123,0.04-0.301,0.068-0.536,0.085c-0.236,0.015-0.556,0.024-0.961,0.024
		c-0.341,0-0.613-0.009-0.816-0.024c-0.203-0.017-0.363-0.047-0.48-0.092c-0.117-0.044-0.201-0.101-0.25-0.17
		c-0.048-0.069-0.089-0.153-0.121-0.249l-1.411-3.517c-0.171-0.397-0.337-0.75-0.5-1.058c-0.162-0.308-0.342-0.566-0.541-0.773
		c-0.199-0.207-0.427-0.363-0.687-0.469c-0.26-0.104-0.561-0.158-0.9-0.158H3.2v5.998c0,0.082-0.027,0.155-0.079,0.22
		c-0.053,0.064-0.14,0.117-0.261,0.158c-0.122,0.04-0.285,0.072-0.488,0.097c-0.202,0.024-0.462,0.037-0.778,0.037
		c-0.309,0-0.566-0.013-0.773-0.037c-0.206-0.025-0.371-0.057-0.493-0.097c-0.121-0.041-0.207-0.094-0.255-0.158
		C0.024,15.74,0,15.667,0,15.585V1.29c0-0.357,0.091-0.614,0.274-0.772C0.456,0.36,0.682,0.281,0.95,0.281h4.075
		c0.413,0,0.755,0.007,1.022,0.024c0.268,0.016,0.511,0.036,0.73,0.061c0.632,0.088,1.202,0.243,1.71,0.461
		c0.505,0.22,0.936,0.505,1.289,0.859c0.353,0.352,0.623,0.77,0.808,1.253c0.188,0.482,0.281,1.036,0.281,1.66
		c0,0.527-0.068,1.009-0.201,1.442c-0.134,0.434-0.331,0.822-0.589,1.162c-0.26,0.34-0.581,0.637-0.962,0.888
		C8.73,8.343,8.297,8.545,7.811,8.699c0.235,0.114,0.456,0.252,0.663,0.415c0.207,0.162,0.401,0.358,0.584,0.589
		c0.183,0.232,0.354,0.496,0.517,0.791c0.162,0.296,0.32,0.631,0.474,1.003l1.326,3.103c0.122,0.308,0.203,0.534,0.244,0.676
		C11.659,15.417,11.68,15.529,11.68,15.61 M7.555,4.928c0-0.52-0.117-0.957-0.353-1.314C6.967,3.257,6.582,3.005,6.047,2.86
		C5.885,2.819,5.7,2.786,5.492,2.762C5.286,2.738,5,2.726,4.635,2.726H3.2v4.465h1.63c0.454,0,0.852-0.055,1.192-0.164
		c0.342-0.11,0.625-0.264,0.851-0.462c0.228-0.2,0.399-0.437,0.512-0.712C7.498,5.576,7.555,5.269,7.555,4.928"/>
	<path clip-path="url(#SVGID_2_)" fill="#FFFFFF" d="M26.875,10.159c0,0.966-0.142,1.829-0.426,2.592
		c-0.283,0.762-0.701,1.407-1.253,1.934c-0.551,0.528-1.233,0.929-2.044,1.204c-0.81,0.276-1.744,0.415-2.798,0.415
		c-0.99,0-1.877-0.124-2.665-0.372c-0.787-0.248-1.451-0.623-1.995-1.126c-0.544-0.502-0.96-1.128-1.247-1.879
		c-0.288-0.75-0.431-1.628-0.431-2.634V0.718c0-0.081,0.023-0.154,0.072-0.219c0.049-0.065,0.137-0.117,0.262-0.158
		c0.126-0.04,0.29-0.074,0.493-0.098c0.202-0.024,0.462-0.036,0.778-0.036c0.309,0,0.565,0.012,0.767,0.036
		c0.202,0.024,0.365,0.058,0.487,0.098c0.121,0.041,0.208,0.093,0.262,0.158c0.051,0.065,0.078,0.138,0.078,0.219v9.295
		c0,0.625,0.077,1.167,0.231,1.625c0.154,0.458,0.375,0.836,0.663,1.137c0.287,0.3,0.633,0.525,1.035,0.675
		c0.401,0.15,0.849,0.226,1.344,0.226c0.502,0,0.953-0.078,1.35-0.232c0.398-0.154,0.734-0.379,1.01-0.676
		c0.276-0.296,0.489-0.66,0.638-1.094c0.151-0.434,0.226-0.927,0.226-1.479V0.718c0-0.081,0.024-0.154,0.073-0.219
		c0.049-0.065,0.134-0.117,0.256-0.158c0.121-0.04,0.285-0.074,0.492-0.098s0.465-0.036,0.773-0.036c0.307,0,0.561,0.012,0.76,0.036
		c0.2,0.024,0.36,0.058,0.481,0.098c0.121,0.041,0.207,0.093,0.256,0.158c0.049,0.065,0.072,0.138,0.072,0.219V10.159z"/>
	<path clip-path="url(#SVGID_2_)" fill="#FFFFFF" d="M40.77,1.594c0,0.235-0.01,0.437-0.03,0.603
		c-0.021,0.166-0.051,0.299-0.091,0.401c-0.041,0.101-0.092,0.177-0.152,0.225c-0.061,0.048-0.128,0.073-0.202,0.073h-3.941v12.689
		c0,0.082-0.027,0.155-0.08,0.22c-0.053,0.064-0.14,0.117-0.262,0.158c-0.121,0.04-0.285,0.072-0.492,0.097
		c-0.207,0.024-0.465,0.037-0.772,0.037c-0.309,0-0.566-0.013-0.773-0.037c-0.207-0.025-0.371-0.057-0.492-0.097
		c-0.123-0.041-0.209-0.094-0.262-0.158c-0.053-0.065-0.08-0.138-0.08-0.22V2.896H29.2c-0.081,0-0.151-0.025-0.207-0.073
		c-0.057-0.048-0.106-0.124-0.147-0.225c-0.04-0.102-0.07-0.235-0.091-0.401c-0.02-0.166-0.03-0.368-0.03-0.603
		c0-0.243,0.01-0.45,0.03-0.62c0.021-0.171,0.051-0.307,0.091-0.408c0.041-0.101,0.09-0.174,0.147-0.219
		c0.056-0.044,0.126-0.066,0.207-0.066h11.095c0.074,0,0.141,0.022,0.202,0.066c0.06,0.045,0.111,0.118,0.152,0.219
		c0.04,0.101,0.07,0.237,0.091,0.408C40.759,1.144,40.77,1.351,40.77,1.594"/>
	<path clip-path="url(#SVGID_2_)" fill="#FFFFFF" d="M53.569,14.831c0.097,0.292,0.158,0.523,0.183,0.693
		c0.024,0.171-0.009,0.298-0.098,0.384c-0.089,0.085-0.248,0.138-0.474,0.158c-0.227,0.02-0.539,0.031-0.938,0.031
		c-0.413,0-0.735-0.006-0.966-0.019c-0.231-0.012-0.408-0.036-0.53-0.073c-0.121-0.036-0.207-0.087-0.256-0.152
		c-0.047-0.065-0.088-0.15-0.121-0.255l-1.058-3.164h-5.912l-0.998,3.079c-0.034,0.113-0.076,0.209-0.128,0.286
		c-0.053,0.077-0.138,0.137-0.255,0.181c-0.118,0.045-0.285,0.076-0.5,0.092c-0.215,0.016-0.496,0.025-0.846,0.025
		c-0.373,0-0.664-0.013-0.875-0.038c-0.211-0.024-0.357-0.083-0.438-0.175c-0.081-0.094-0.11-0.226-0.085-0.396
		c0.024-0.171,0.085-0.397,0.182-0.682L44.311,0.84c0.049-0.138,0.105-0.25,0.17-0.335c0.064-0.085,0.168-0.15,0.31-0.195
		c0.142-0.045,0.338-0.073,0.59-0.085s0.584-0.018,0.998-0.018c0.479,0,0.859,0.006,1.144,0.018c0.284,0.012,0.505,0.04,0.663,0.085
		c0.158,0.045,0.271,0.112,0.34,0.201s0.129,0.211,0.177,0.365L53.569,14.831z M46.342,3.285H46.33l-2.226,6.691h4.465L46.342,3.285
		z"/>
	<path clip-path="url(#SVGID_2_)" fill="#FFFFFF" d="M74.483,7.921c0,1.443-0.188,2.678-0.566,3.704
		c-0.377,1.026-0.919,1.864-1.624,2.512c-0.705,0.65-1.563,1.125-2.573,1.43c-1.01,0.304-2.212,0.456-3.608,0.456h-3.758
		c-0.268,0-0.493-0.079-0.676-0.237c-0.183-0.158-0.274-0.415-0.274-0.773V1.29c0-0.358,0.091-0.614,0.274-0.773
		c0.183-0.158,0.408-0.237,0.676-0.237h4.039c1.402,0,2.593,0.164,3.57,0.492c0.978,0.329,1.801,0.816,2.471,1.46
		c0.668,0.646,1.178,1.443,1.526,2.391C74.309,5.572,74.483,6.672,74.483,7.921 M71.174,8.03c0-0.746-0.088-1.439-0.262-2.081
		c-0.174-0.641-0.455-1.196-0.84-1.666c-0.384-0.471-0.879-0.838-1.484-1.102c-0.603-0.263-1.396-0.395-2.378-0.395h-1.618v10.707
		h1.666c0.877,0,1.615-0.114,2.215-0.341c0.599-0.227,1.101-0.57,1.502-1.028c0.402-0.458,0.702-1.029,0.9-1.709
		C71.074,9.733,71.174,8.938,71.174,8.03"/>
	<path clip-path="url(#SVGID_2_)" fill="#FFFFFF" d="M86.442,14.771c0,0.235-0.01,0.432-0.03,0.59
		c-0.021,0.158-0.051,0.286-0.091,0.383c-0.041,0.097-0.092,0.169-0.152,0.213c-0.061,0.044-0.128,0.067-0.202,0.067h-7.907
		c-0.267,0-0.493-0.079-0.676-0.237c-0.182-0.159-0.273-0.415-0.273-0.773V1.291c0-0.358,0.091-0.615,0.273-0.773
		c0.183-0.158,0.409-0.237,0.676-0.237h7.86c0.072,0,0.137,0.02,0.194,0.06c0.057,0.041,0.105,0.112,0.145,0.213
		c0.041,0.102,0.072,0.232,0.092,0.39c0.021,0.158,0.03,0.358,0.03,0.601c0,0.228-0.009,0.42-0.03,0.579
		c-0.02,0.158-0.051,0.286-0.092,0.383c-0.04,0.097-0.088,0.168-0.145,0.213c-0.057,0.044-0.122,0.067-0.194,0.067h-5.622V6.63
		h4.757c0.074,0,0.14,0.023,0.201,0.068c0.061,0.044,0.112,0.113,0.152,0.206c0.041,0.094,0.071,0.22,0.092,0.378
		c0.019,0.158,0.03,0.35,0.03,0.577c0,0.235-0.011,0.431-0.03,0.584c-0.021,0.154-0.051,0.278-0.092,0.371
		c-0.04,0.094-0.091,0.16-0.152,0.201s-0.127,0.061-0.201,0.061h-4.757v4.441h5.669c0.074,0,0.141,0.023,0.202,0.066
		c0.06,0.045,0.111,0.116,0.152,0.213c0.04,0.098,0.07,0.226,0.091,0.384C86.433,14.337,86.442,14.536,86.442,14.771"/>
	<path clip-path="url(#SVGID_2_)" fill="#FFFFFF" d="M97.916,14.686c0,0.243-0.011,0.448-0.031,0.614
		c-0.02,0.166-0.05,0.304-0.091,0.413c-0.041,0.11-0.091,0.189-0.152,0.238c-0.061,0.048-0.132,0.073-0.213,0.073h-7.215
		c-0.268,0-0.492-0.079-0.675-0.237c-0.183-0.159-0.273-0.415-0.273-0.773V0.718c0-0.081,0.026-0.153,0.079-0.219
		c0.053-0.064,0.14-0.117,0.261-0.158c0.122-0.04,0.286-0.073,0.493-0.097c0.207-0.025,0.463-0.037,0.772-0.037
		c0.315,0,0.576,0.012,0.779,0.037c0.202,0.024,0.364,0.057,0.486,0.097c0.121,0.041,0.209,0.094,0.262,0.158
		c0.053,0.066,0.079,0.138,0.079,0.219v12.666h4.951c0.081,0,0.152,0.022,0.213,0.067c0.062,0.045,0.111,0.118,0.152,0.218
		c0.041,0.102,0.071,0.236,0.091,0.402C97.905,14.237,97.916,14.441,97.916,14.686"/>
	<path clip-path="url(#SVGID_2_)" fill="#FFFFFF" d="M123.781,15.585c0,0.082-0.021,0.154-0.066,0.22
		c-0.045,0.064-0.126,0.117-0.244,0.158c-0.117,0.04-0.273,0.072-0.468,0.097c-0.195,0.024-0.442,0.037-0.742,0.037
		c-0.291,0-0.535-0.013-0.73-0.037c-0.194-0.025-0.349-0.057-0.462-0.097c-0.114-0.041-0.195-0.094-0.243-0.158
		c-0.049-0.066-0.073-0.138-0.073-0.22V2.774h-0.024l-4.562,12.799c-0.032,0.106-0.085,0.193-0.158,0.262s-0.172,0.124-0.298,0.164
		c-0.126,0.041-0.286,0.067-0.48,0.079c-0.195,0.013-0.431,0.019-0.706,0.019s-0.511-0.011-0.705-0.031
		c-0.195-0.02-0.355-0.052-0.481-0.097c-0.125-0.045-0.225-0.1-0.298-0.164c-0.073-0.066-0.121-0.142-0.146-0.232l-4.404-12.799
		h-0.024v12.811c0,0.082-0.022,0.154-0.067,0.22c-0.044,0.064-0.128,0.117-0.249,0.158c-0.122,0.04-0.278,0.072-0.469,0.097
		c-0.19,0.024-0.436,0.037-0.735,0.037c-0.293,0-0.536-0.013-0.73-0.037c-0.194-0.025-0.351-0.057-0.469-0.097
		c-0.117-0.041-0.198-0.094-0.243-0.158c-0.045-0.066-0.066-0.138-0.066-0.22V1.558c0-0.414,0.109-0.731,0.328-0.95
		c0.219-0.218,0.511-0.328,0.876-0.328h2.093c0.373,0,0.694,0.031,0.961,0.091c0.268,0.061,0.499,0.162,0.693,0.305
		c0.195,0.141,0.357,0.328,0.487,0.559c0.129,0.231,0.243,0.517,0.34,0.858l3.407,9.381h0.049l3.528-9.357
		c0.105-0.341,0.221-0.629,0.347-0.864c0.125-0.234,0.271-0.426,0.438-0.571c0.166-0.147,0.363-0.25,0.59-0.311
		c0.228-0.06,0.491-0.091,0.791-0.091h2.153c0.22,0,0.408,0.029,0.566,0.085c0.158,0.057,0.287,0.14,0.389,0.249
		c0.102,0.11,0.179,0.243,0.231,0.402c0.053,0.158,0.079,0.339,0.079,0.542V15.585z"/>
	<path clip-path="url(#SVGID_2_)" fill="#FFFFFF" d="M140.109,14.831c0.097,0.292,0.158,0.523,0.183,0.693
		c0.023,0.171-0.009,0.298-0.099,0.384c-0.089,0.085-0.248,0.138-0.474,0.158c-0.228,0.02-0.539,0.031-0.937,0.031
		c-0.414,0-0.736-0.006-0.968-0.019c-0.23-0.012-0.407-0.036-0.529-0.073c-0.121-0.036-0.207-0.087-0.255-0.152
		c-0.049-0.065-0.09-0.15-0.122-0.255l-1.059-3.164h-5.913l-0.997,3.079c-0.033,0.113-0.075,0.209-0.128,0.286
		c-0.053,0.077-0.138,0.137-0.256,0.181c-0.117,0.045-0.284,0.076-0.498,0.092c-0.216,0.016-0.497,0.025-0.846,0.025
		c-0.373,0-0.665-0.013-0.876-0.038c-0.211-0.024-0.357-0.083-0.438-0.175c-0.081-0.094-0.109-0.226-0.085-0.396
		c0.024-0.171,0.085-0.397,0.183-0.682l4.854-13.966c0.049-0.138,0.105-0.25,0.17-0.335c0.065-0.085,0.168-0.15,0.311-0.195
		c0.142-0.045,0.339-0.073,0.59-0.085s0.584-0.018,0.998-0.018c0.479,0,0.858,0.006,1.144,0.018c0.283,0.012,0.505,0.04,0.663,0.085
		s0.271,0.112,0.341,0.201c0.068,0.089,0.127,0.211,0.176,0.365L140.109,14.831z M132.882,3.285h-0.012l-2.227,6.691h4.465
		L132.882,3.285z"/>
	<path clip-path="url(#SVGID_2_)" fill="#FFFFFF" d="M145.523,15.585c0,0.082-0.026,0.154-0.079,0.22
		c-0.053,0.064-0.141,0.117-0.262,0.158c-0.122,0.04-0.284,0.072-0.486,0.097c-0.203,0.024-0.463,0.037-0.779,0.037
		c-0.309,0-0.565-0.013-0.772-0.037c-0.207-0.025-0.371-0.057-0.493-0.097c-0.121-0.041-0.208-0.094-0.261-0.158
		c-0.053-0.066-0.079-0.138-0.079-0.22V0.718c0-0.081,0.026-0.154,0.079-0.219c0.053-0.064,0.142-0.117,0.268-0.158
		c0.125-0.04,0.29-0.073,0.492-0.098c0.203-0.024,0.458-0.036,0.767-0.036c0.316,0,0.576,0.012,0.779,0.036
		c0.202,0.025,0.364,0.058,0.486,0.098c0.121,0.041,0.209,0.094,0.262,0.158c0.053,0.065,0.079,0.138,0.079,0.219V15.585z"/>
	<path clip-path="url(#SVGID_2_)" fill="#FFFFFF" d="M159.733,5.062c0,0.883-0.138,1.667-0.414,2.347
		c-0.275,0.682-0.677,1.256-1.204,1.722c-0.527,0.467-1.174,0.821-1.94,1.064c-0.767,0.244-1.669,0.366-2.707,0.366h-1.314v5.024
		c0,0.082-0.026,0.154-0.079,0.22c-0.053,0.064-0.14,0.117-0.262,0.158c-0.121,0.04-0.283,0.072-0.486,0.097
		c-0.203,0.024-0.462,0.037-0.778,0.037c-0.309,0-0.566-0.013-0.772-0.037c-0.207-0.025-0.371-0.057-0.493-0.097
		c-0.122-0.041-0.206-0.094-0.256-0.158c-0.048-0.066-0.072-0.138-0.072-0.22V1.424c0-0.382,0.099-0.667,0.298-0.859
		c0.199-0.19,0.46-0.285,0.784-0.285h3.711c0.373,0,0.729,0.014,1.064,0.042c0.337,0.03,0.74,0.09,1.211,0.183
		c0.471,0.094,0.947,0.266,1.43,0.517s0.895,0.57,1.234,0.956c0.341,0.384,0.601,0.835,0.779,1.35
		C159.644,3.843,159.733,4.421,159.733,5.062 M156.388,5.293c0-0.552-0.098-1.006-0.292-1.363c-0.195-0.357-0.435-0.62-0.718-0.791
		c-0.284-0.17-0.582-0.278-0.895-0.323c-0.312-0.044-0.635-0.066-0.967-0.066h-1.363v5.341h1.436c0.512,0,0.939-0.069,1.284-0.207
		c0.345-0.138,0.626-0.33,0.846-0.578c0.219-0.247,0.385-0.543,0.498-0.888C156.331,6.073,156.388,5.698,156.388,5.293"/>
	<path clip-path="url(#SVGID_2_)" fill="#FFFFFF" d="M176.377,7.969c0,1.307-0.162,2.475-0.486,3.505
		c-0.324,1.029-0.809,1.903-1.448,2.621c-0.641,0.718-1.434,1.266-2.378,1.643c-0.945,0.377-2.038,0.566-3.279,0.566
		c-1.225,0-2.293-0.161-3.206-0.481c-0.913-0.321-1.673-0.809-2.281-1.466c-0.607-0.657-1.064-1.492-1.368-2.506
		c-0.306-1.014-0.456-2.215-0.456-3.602c0-1.273,0.162-2.419,0.486-3.437s0.807-1.883,1.448-2.597
		c0.641-0.714,1.434-1.262,2.378-1.642C166.731,0.19,167.828,0,169.077,0c1.192,0,2.245,0.159,3.157,0.475
		c0.913,0.316,1.675,0.803,2.287,1.46c0.612,0.657,1.075,1.486,1.388,2.488C176.221,5.425,176.377,6.606,176.377,7.969 M173.02,8.14
		c0-0.827-0.065-1.58-0.195-2.257c-0.129-0.678-0.351-1.257-0.663-1.74c-0.312-0.482-0.728-0.856-1.247-1.119
		c-0.519-0.264-1.168-0.396-1.946-0.396c-0.787,0-1.443,0.149-1.971,0.445s-0.953,0.691-1.277,1.186
		c-0.325,0.494-0.555,1.072-0.688,1.734c-0.134,0.661-0.201,1.36-0.201,2.098c0,0.861,0.065,1.633,0.195,2.318
		c0.129,0.685,0.348,1.271,0.656,1.758c0.309,0.487,0.722,0.858,1.241,1.114c0.52,0.255,1.172,0.382,1.959,0.382
		c0.786,0,1.443-0.145,1.971-0.437s0.953-0.69,1.277-1.192c0.324-0.503,0.554-1.089,0.688-1.759
		C172.952,9.605,173.02,8.894,173.02,8.14"/>
</g>
</svg>
