<?xml version="1.0" encoding="utf-8"?>
<!-- Generator: Adobe Illustrator 15.0.0, SVG Export Plug-In . SVG Version: 6.00 Build 0)  -->
<!DOCTYPE svg PUBLIC "-//W3C//DTD SVG 1.1//EN" "http://www.w3.org/Graphics/SVG/1.1/DTD/svg11.dtd">
<svg version="1.1" id="Layer_1" xmlns="http://www.w3.org/2000/svg" xmlns:xlink="http://www.w3.org/1999/xlink" x="0px" y="0px"
	 width="132px" height="33px" viewBox="0 0 132 33" enable-background="new 0 0 132 33" xml:space="preserve">
<g>
	<path fill="#999999" d="M28.346,33.142H8.35c-2.266,0-4.37-0.815-5.927-2.297C0.86,29.354,0,27.335,0,25.152L0.005,6.794h5.543
		v18.307c0,1.494,1.702,2.536,3.23,2.536c0,0,19.583,0.013,19.591,0.013c2.066-0.01,3.308-1.292,3.313-2.526
		c0.004-0.546-0.224-1.064-0.655-1.499c-0.63-0.635-1.658-1.028-2.681-1.028l-10.559,0.002c-4.244,0-8.971-3.29-8.971-8.01
		c0-2.157,1.074-4.276,2.949-5.814c1.699-1.391,3.895-2.188,6.029-2.188h39.149c2.312,0,3.866,0.568,5.536,2.022
		c1.591,1.387,2.701,3.826,2.701,5.93l-0.011,10.577c0,2.279-1.108,4.602-2.891,6.063c-1.542,1.266-3.709,1.962-6.104,1.962
		l-8.283-0.019c-0.249,0-0.338,0-0.37-0.005v0.005c-4.247,0-8.979-3.286-8.979-8.003c0-2.158,1.074-4.276,2.949-5.811
		c1.706-1.399,3.91-2.201,6.049-2.201l10.519,0.001l0.002,5.48l-10.518,0.003c-1.663,0.002-3.385,0.944-3.387,2.52
		c-0.004,1.239,1.262,2.526,3.392,2.534c0.086,0,8.57-0.003,8.583-0.003c0.907-0.003,1.754-0.272,2.38-0.763
		c0.61-0.478,0.947-1.102,0.947-1.761l0.003-10.512c0.013-0.646-0.237-1.139-0.859-1.703c-0.583-0.527-1.491-0.844-2.431-0.844
		H17.795c-1.841,0.029-3.34,1.145-3.34,2.487c0,1.255,1.249,2.56,3.34,2.567H28.4c2.114,0,4.229,0.778,5.95,2.193
		c1.876,1.533,2.951,3.651,2.951,5.811c0,2.169-1.05,4.222-2.955,5.78C32.63,32.305,30.388,33.142,28.346,33.142 M78.721,23.808
		c0,0.034-0.009,0.065-0.026,0.091c-0.017,0.025-0.046,0.046-0.089,0.061c-0.044,0.016-0.102,0.028-0.173,0.038
		c-0.069,0.011-0.158,0.017-0.265,0.017c-0.104,0-0.193-0.006-0.263-0.017c-0.076-0.01-0.133-0.022-0.176-0.038
		c-0.043-0.015-0.073-0.035-0.09-0.061c-0.018-0.025-0.025-0.057-0.025-0.091v-7.99c0-0.033,0.01-0.064,0.029-0.09
		c0.02-0.024,0.051-0.046,0.095-0.061c0.045-0.016,0.104-0.027,0.175-0.039c0.07-0.01,0.155-0.015,0.255-0.015
		c0.106,0,0.195,0.005,0.265,0.015c0.071,0.012,0.129,0.023,0.173,0.039c0.043,0.015,0.072,0.036,0.089,0.061
		c0.018,0.026,0.026,0.057,0.026,0.09V23.808z M87.225,23.519c0,0.085-0.014,0.158-0.042,0.219s-0.068,0.108-0.114,0.146
		c-0.046,0.04-0.099,0.067-0.156,0.085c-0.058,0.017-0.115,0.026-0.171,0.026h-0.367c-0.116,0-0.218-0.013-0.304-0.036
		c-0.085-0.022-0.168-0.065-0.246-0.13c-0.078-0.062-0.155-0.145-0.232-0.254c-0.078-0.105-0.16-0.243-0.247-0.41l-2.54-4.735
		c-0.134-0.244-0.267-0.501-0.401-0.769c-0.135-0.269-0.262-0.529-0.377-0.782h-0.012c0.008,0.31,0.015,0.625,0.02,0.945
		c0.003,0.321,0.005,0.642,0.005,0.96v5.023c0,0.03-0.009,0.06-0.024,0.086c-0.02,0.028-0.052,0.051-0.093,0.065
		c-0.044,0.016-0.099,0.028-0.17,0.038c-0.07,0.011-0.16,0.017-0.269,0.017c-0.107,0-0.199-0.006-0.268-0.017
		c-0.07-0.01-0.126-0.022-0.167-0.038c-0.042-0.015-0.07-0.037-0.089-0.065c-0.019-0.026-0.028-0.056-0.028-0.086v-7.681
		c0-0.17,0.052-0.293,0.148-0.367c0.097-0.074,0.204-0.109,0.317-0.109h0.545c0.13,0,0.235,0.012,0.322,0.032
		c0.087,0.021,0.164,0.057,0.232,0.106c0.069,0.049,0.137,0.118,0.201,0.206c0.062,0.088,0.129,0.2,0.2,0.332l1.952,3.654
		c0.121,0.222,0.236,0.44,0.348,0.653c0.112,0.212,0.22,0.422,0.323,0.627c0.104,0.207,0.206,0.408,0.307,0.607
		c0.104,0.2,0.203,0.399,0.304,0.602h0.006c-0.007-0.338-0.015-0.69-0.016-1.059c-0.003-0.367-0.003-0.719-0.003-1.059v-4.515
		c0-0.031,0.008-0.058,0.027-0.084c0.017-0.026,0.048-0.047,0.09-0.067c0.043-0.02,0.1-0.032,0.172-0.042
		c0.068-0.008,0.161-0.012,0.274-0.012c0.1,0,0.186,0.004,0.258,0.012c0.072,0.009,0.128,0.022,0.17,0.042
		c0.039,0.02,0.069,0.041,0.087,0.067c0.02,0.026,0.027,0.053,0.027,0.084V23.519z M94.654,16.126c0,0.083-0.003,0.153-0.011,0.213
		c-0.01,0.06-0.022,0.108-0.043,0.145c-0.019,0.037-0.043,0.063-0.071,0.08c-0.026,0.018-0.059,0.026-0.093,0.026h-2.341v7.218
		c0,0.034-0.009,0.065-0.028,0.091c-0.016,0.025-0.045,0.046-0.088,0.061c-0.042,0.016-0.099,0.028-0.171,0.038
		c-0.071,0.011-0.16,0.017-0.267,0.017c-0.104,0-0.191-0.006-0.264-0.017c-0.073-0.01-0.13-0.022-0.173-0.038
		c-0.046-0.015-0.075-0.035-0.092-0.061s-0.025-0.057-0.025-0.091V16.59h-2.343c-0.034,0-0.064-0.008-0.092-0.026
		c-0.028-0.017-0.05-0.042-0.068-0.08c-0.016-0.037-0.03-0.084-0.041-0.145s-0.017-0.13-0.017-0.213s0.006-0.153,0.017-0.216
		c0.011-0.062,0.025-0.112,0.041-0.15c0.019-0.039,0.04-0.067,0.068-0.083c0.027-0.018,0.058-0.026,0.092-0.026h5.791
		c0.034,0,0.066,0.009,0.093,0.026c0.028,0.016,0.053,0.044,0.071,0.083c0.021,0.039,0.033,0.089,0.043,0.15
		C94.651,15.973,94.654,16.044,94.654,16.126 M100.491,23.519c0,0.076-0.006,0.145-0.015,0.204
		c-0.009,0.056-0.023,0.104-0.044,0.144c-0.021,0.038-0.046,0.066-0.074,0.083s-0.059,0.025-0.094,0.025h-3.994
		c-0.1,0-0.192-0.033-0.281-0.099c-0.087-0.067-0.133-0.184-0.133-0.352v-7.423c0-0.168,0.046-0.284,0.133-0.351
		c0.089-0.065,0.182-0.1,0.281-0.1h3.949c0.034,0,0.065,0.009,0.094,0.026c0.027,0.016,0.051,0.044,0.066,0.083
		c0.018,0.039,0.033,0.086,0.042,0.146c0.011,0.057,0.017,0.129,0.017,0.215c0,0.078-0.006,0.145-0.017,0.202
		c-0.009,0.059-0.024,0.105-0.042,0.143c-0.016,0.036-0.039,0.062-0.066,0.08c-0.028,0.016-0.06,0.025-0.094,0.025h-3.255v2.611
		h2.793c0.034,0,0.064,0.011,0.093,0.029c0.028,0.021,0.052,0.048,0.07,0.08c0.019,0.034,0.033,0.083,0.039,0.143
		c0.012,0.06,0.016,0.132,0.016,0.212c0,0.077-0.004,0.145-0.016,0.199c-0.006,0.056-0.021,0.102-0.039,0.136
		s-0.042,0.059-0.07,0.073c-0.028,0.014-0.059,0.023-0.093,0.023h-2.793v2.978h3.3c0.035,0,0.065,0.01,0.094,0.026
		s0.054,0.044,0.074,0.079c0.021,0.039,0.035,0.085,0.044,0.144C100.485,23.36,100.491,23.434,100.491,23.519 M107.844,23.808
		c0,0.034-0.008,0.065-0.02,0.091c-0.013,0.025-0.04,0.046-0.085,0.062c-0.04,0.018-0.101,0.032-0.179,0.04
		c-0.077,0.009-0.18,0.013-0.31,0.013c-0.112,0-0.203-0.004-0.272-0.013c-0.071-0.008-0.129-0.022-0.17-0.042
		c-0.043-0.02-0.076-0.046-0.101-0.08c-0.022-0.035-0.043-0.077-0.061-0.129l-0.767-1.963c-0.09-0.223-0.183-0.428-0.279-0.613
		c-0.097-0.187-0.212-0.349-0.345-0.482c-0.132-0.136-0.29-0.24-0.469-0.316c-0.18-0.073-0.396-0.112-0.65-0.112h-0.739v3.545
		c0,0.034-0.01,0.065-0.028,0.091c-0.021,0.025-0.05,0.046-0.091,0.061c-0.041,0.016-0.097,0.028-0.166,0.038
		c-0.072,0.011-0.161,0.017-0.267,0.017c-0.108,0-0.197-0.006-0.269-0.017c-0.071-0.01-0.128-0.022-0.17-0.038
		c-0.044-0.015-0.075-0.035-0.091-0.061c-0.019-0.025-0.024-0.057-0.024-0.091v-7.707c0-0.168,0.044-0.284,0.131-0.351
		c0.088-0.065,0.182-0.1,0.279-0.1h1.769c0.211,0,0.386,0.005,0.525,0.016c0.139,0.011,0.265,0.022,0.376,0.036
		c0.322,0.055,0.606,0.144,0.853,0.265c0.247,0.119,0.454,0.271,0.621,0.455c0.166,0.186,0.292,0.396,0.376,0.635
		s0.127,0.501,0.127,0.787c0,0.279-0.038,0.529-0.113,0.751c-0.077,0.22-0.185,0.415-0.326,0.585
		c-0.141,0.168-0.311,0.315-0.506,0.439c-0.2,0.124-0.42,0.229-0.666,0.316c0.141,0.06,0.264,0.136,0.375,0.227
		c0.11,0.095,0.216,0.205,0.312,0.333c0.098,0.128,0.188,0.275,0.274,0.444c0.086,0.166,0.17,0.355,0.256,0.564l0.747,1.834
		c0.062,0.156,0.098,0.264,0.116,0.325C107.835,23.726,107.844,23.774,107.844,23.808 M106.177,17.96
		c0-0.325-0.072-0.602-0.218-0.826c-0.146-0.224-0.391-0.388-0.733-0.485c-0.107-0.03-0.229-0.053-0.365-0.066
		c-0.133-0.012-0.311-0.019-0.529-0.019h-0.933v2.806h1.081c0.291,0,0.544-0.034,0.756-0.105c0.211-0.071,0.39-0.17,0.531-0.298
		c0.141-0.125,0.243-0.274,0.309-0.445C106.146,18.348,106.177,18.161,106.177,17.96 M112.631,23.781
		c-0.017,0.048-0.041,0.088-0.071,0.117c-0.03,0.03-0.072,0.053-0.125,0.07c-0.055,0.017-0.121,0.028-0.208,0.034
		c-0.082,0.007-0.187,0.011-0.311,0.011c-0.096,0-0.178-0.002-0.247-0.004c-0.071-0.002-0.133-0.007-0.184-0.015
		c-0.053-0.01-0.096-0.018-0.132-0.029c-0.038-0.011-0.067-0.025-0.095-0.042c-0.025-0.017-0.045-0.038-0.059-0.062
		c-0.018-0.022-0.03-0.053-0.043-0.088l-2.723-7.73c-0.033-0.095-0.053-0.171-0.055-0.229c-0.001-0.059,0.017-0.102,0.055-0.133
		c0.039-0.029,0.101-0.049,0.188-0.057c0.087-0.01,0.201-0.013,0.346-0.013c0.121,0,0.218,0.002,0.288,0.008
		c0.068,0.007,0.124,0.02,0.163,0.036c0.041,0.017,0.067,0.041,0.088,0.068c0.019,0.027,0.038,0.063,0.055,0.105l2.386,7.007h0.007
		l2.321-6.994c0.015-0.048,0.03-0.085,0.047-0.116c0.017-0.029,0.046-0.053,0.088-0.07c0.044-0.016,0.104-0.029,0.182-0.036
		c0.078-0.005,0.18-0.008,0.309-0.008c0.133,0,0.238,0.005,0.315,0.015c0.077,0.012,0.129,0.032,0.157,0.062
		c0.027,0.03,0.04,0.074,0.031,0.133c-0.005,0.057-0.026,0.134-0.06,0.228L112.631,23.781z M117.847,23.808
		c0,0.034-0.008,0.065-0.025,0.091c-0.017,0.025-0.048,0.046-0.09,0.061c-0.042,0.016-0.099,0.028-0.17,0.038
		c-0.072,0.011-0.16,0.017-0.268,0.017c-0.103,0-0.191-0.006-0.264-0.017c-0.073-0.01-0.131-0.022-0.173-0.038
		c-0.044-0.015-0.073-0.035-0.093-0.061c-0.018-0.025-0.023-0.057-0.023-0.091v-7.99c0-0.033,0.009-0.064,0.029-0.09
		c0.019-0.024,0.051-0.046,0.095-0.061c0.045-0.016,0.104-0.027,0.176-0.039c0.069-0.01,0.153-0.015,0.253-0.015
		c0.107,0,0.195,0.005,0.268,0.015c0.071,0.012,0.128,0.023,0.17,0.039c0.042,0.015,0.073,0.036,0.09,0.061
		c0.018,0.026,0.025,0.057,0.025,0.09V23.808z M126.295,23.583c0.033,0.094,0.053,0.17,0.053,0.227
		c0.003,0.06-0.012,0.104-0.048,0.134c-0.034,0.031-0.09,0.05-0.168,0.058c-0.083,0.009-0.188,0.013-0.32,0.013
		c-0.133,0-0.238-0.004-0.317-0.011c-0.08-0.006-0.14-0.016-0.181-0.03s-0.072-0.036-0.089-0.062
		c-0.021-0.027-0.039-0.059-0.057-0.097l-0.714-2.027h-3.461l-0.683,2.001c-0.014,0.039-0.029,0.072-0.05,0.1
		c-0.023,0.029-0.055,0.052-0.094,0.071c-0.042,0.02-0.1,0.034-0.175,0.042c-0.074,0.009-0.171,0.013-0.293,0.013
		s-0.226-0.006-0.306-0.017c-0.08-0.01-0.135-0.031-0.166-0.061c-0.033-0.029-0.046-0.074-0.044-0.133
		c0-0.057,0.02-0.132,0.052-0.229l2.793-7.732c0.017-0.048,0.04-0.085,0.067-0.116c0.029-0.029,0.069-0.053,0.122-0.07
		c0.054-0.016,0.123-0.029,0.206-0.036c0.084-0.005,0.19-0.008,0.32-0.008c0.136,0,0.25,0.002,0.341,0.008
		c0.089,0.007,0.161,0.02,0.217,0.036c0.058,0.017,0.101,0.042,0.13,0.075c0.029,0.032,0.055,0.072,0.07,0.118L126.295,23.583z
		 M122.712,16.758h-0.008l-1.434,4.148h2.895L122.712,16.758z M132,23.494c0,0.084-0.004,0.156-0.013,0.214
		c-0.009,0.059-0.021,0.107-0.042,0.147c-0.019,0.042-0.043,0.071-0.069,0.091c-0.029,0.02-0.062,0.028-0.102,0.028h-3.68
		c-0.099,0-0.191-0.033-0.28-0.099c-0.086-0.067-0.131-0.184-0.131-0.352v-7.707c0-0.033,0.008-0.064,0.026-0.09
		c0.017-0.024,0.045-0.046,0.089-0.061c0.044-0.016,0.102-0.027,0.174-0.039c0.073-0.01,0.161-0.015,0.265-0.015
		c0.107,0,0.196,0.005,0.266,0.015c0.072,0.012,0.128,0.023,0.17,0.039c0.044,0.015,0.075,0.036,0.092,0.061
		c0.017,0.026,0.025,0.057,0.025,0.09v7.198h2.984c0.04,0,0.072,0.011,0.102,0.03c0.026,0.02,0.051,0.046,0.069,0.083
		c0.021,0.036,0.033,0.084,0.042,0.145S132,23.407,132,23.494"/>
	<path fill="#999999" d="M0-0.142h5.547v5.548H0V-0.142z M66.568,22.589h5.548v-5.547h-5.548V22.589z"/>
</g>
</svg>
