<?xml version="1.0" encoding="utf-8"?>
<!-- Generator: Adobe Illustrator 15.0.0, SVG Export Plug-In . SVG Version: 6.00 Build 0)  -->
<!DOCTYPE svg PUBLIC "-//W3C//DTD SVG 1.1//EN" "http://www.w3.org/Graphics/SVG/1.1/DTD/svg11.dtd">
<svg version="1.1" id="Layer_1" xmlns="http://www.w3.org/2000/svg" xmlns:xlink="http://www.w3.org/1999/xlink" x="0px" y="0px"
	 width="89.602px" height="89.602px" viewBox="0 0 89.602 89.602" enable-background="new 0 0 89.602 89.602" xml:space="preserve">
<g>
	<path fill="#D2CFCD" d="M55.758,57.867C55.902,58.479,56,59.098,56,59.734v3.734c0,8.246-12.535,14.93-28,14.93
		c-15.464,0-28-6.684-28-14.93v-3.734c0-0.637,0.099-1.255,0.243-1.867C1.969,65.234,13.724,70.934,28,70.934
		C42.276,70.934,54.031,65.234,55.758,57.867 M28,82.133c-14.276,0-26.031-5.699-27.757-13.066C0.099,69.68,0,70.297,0,70.934v3.734
		c0,8.246,12.536,14.934,28,14.934c15.465,0,28-6.688,28-14.934v-3.734c0-0.637-0.098-1.254-0.242-1.867
		C54.031,76.434,42.276,82.133,28,82.133 M28,37.332c-15.464,0-28,6.688-28,14.934c0,8.25,12.536,14.934,28,14.934
		c15.465,0,28-6.684,28-14.934C56,44.02,43.465,37.332,28,37.332 M61.602,67.199c-0.633,0-1.25-0.027-1.867-0.043v7.461
		c0.617,0.02,1.234,0.051,1.867,0.051c15.461,0,28-6.688,28-14.938V56c0-0.637-0.098-1.254-0.242-1.867
		C87.633,61.5,75.875,67.199,61.602,67.199 M61.602,29.867c15.461,0,28-6.687,28-14.933S77.062,0,61.602,0
		c-15.465,0-28,6.688-28,14.934S46.137,29.867,61.602,29.867 M61.602,33.602c-14.277,0-26.036-5.704-27.758-13.067
		c-0.149,0.61-0.242,1.231-0.242,1.863v3.735c0,3.172,1.863,6.105,5.023,8.523c5.458,1.11,10.204,3.039,13.797,5.574
		c2.879,0.536,5.957,0.836,9.18,0.836c15.461,0,28-6.687,28-14.933v-3.735c0-0.632-0.098-1.253-0.242-1.867
		C87.633,27.898,75.875,33.602,61.602,33.602 M61.602,44.801c-1.574,0-3.104-0.078-4.604-0.215c1.737,2.32,2.722,4.891,2.733,7.633
		c0.617,0.02,1.238,0.051,1.871,0.051c15.461,0,28-6.688,28-14.934v-3.734c0-0.633-0.098-1.254-0.242-1.868
		C87.633,39.098,75.875,44.801,61.602,44.801 M61.602,56c-0.633,0-1.25-0.027-1.867-0.047v7.465
		c0.617,0.016,1.234,0.047,1.867,0.047c15.461,0,28-6.684,28-14.934v-3.73c0-0.637-0.098-1.258-0.242-1.867
		C87.633,50.301,75.875,56,61.602,56"/>
</g>
</svg>
